<?xml version="1.0" encoding="UTF-8"?>
<svg id="Calque_1" data-name="Calque 1" xmlns="http://www.w3.org/2000/svg" viewBox="0 0 595.08 595.08">
  <defs>
    <style>
      .cls-1 {
        fill: none;
      }

      .cls-2 {
        fill: #efae00;
      }

      .cls-3 {
        fill: #9b2b7c;
      }

      .cls-4 {
        fill: #cd1517;
      }

      .cls-5 {
        fill: #c61261;
      }

      .cls-6 {
        fill: #d54a15;
      }

      .cls-7 {
        fill: #54256b;
      }

      .cls-8 {
        fill: #99b91f;
      }

      .cls-9 {
        fill: #2a9086;
      }

      .cls-10 {
        fill: #268035;
      }
    </style>
  </defs>
  <rect class="cls-4" x="205.44" y="205.44" width="184.21" height="184.21" rx="12" ry="12" transform="translate(-123.25 297.54) rotate(-45)"/>
  <path class="cls-1" d="M426.96,324.94c7.53-7.53,17.47-11.3,27.4-11.3v101.98c0,21.31-17.44,38.75-38.75,38.75h-101.98c0-9.93,3.77-19.86,11.3-27.4l102.02-102.02Z"/>
  <path class="cls-1" d="M324.94,168.12c-7.53-7.53-11.3-17.47-11.3-27.4h101.98c21.31,0,38.75,17.44,38.75,38.75v101.98c-9.93,0-19.86-3.77-27.4-11.3l-102.02-102.02Z"/>
  <path class="cls-1" d="M270.14,426.96c7.53,7.53,11.3,17.47,11.3,27.4h-101.98c-21.31,0-38.75-17.44-38.75-38.75v-101.98c9.93,0,19.86,3.77,27.4,11.3l102.02,102.02Z"/>
  <path class="cls-1" d="M179.47,140.72h101.98c0,9.93-3.77,19.86-11.3,27.4l-102.02,102.02c-7.53,7.53-17.47,11.3-27.4,11.3v-101.98c0-21.31,17.44-38.75,38.75-38.75Z"/>
  <g>
    <path class="cls-10" d="M454.36,415.61v-101.98c9.93,0,19.86,3.77,27.4,11.3l102.02,102.02c15.07,15.07,15.07,39.73,0,54.79l-102.02,102.02c-15.07,15.07-39.73,15.07-54.79,0l-102.02-102.02c-7.53-7.53-11.3-17.47-11.3-27.4h101.98c21.31,0,38.75-17.44,38.75-38.75Z"/>
    <path class="cls-6" d="M270.14,113.33c7.53,7.53,11.3,17.47,11.3,27.4h-101.98c-21.31,0-38.75,17.44-38.75,38.75v101.98c-9.93,0-19.86-3.77-27.4-11.3L11.3,168.12c-15.07-15.07-15.07-39.73,0-54.79L113.33,11.3c15.07-15.07,39.73-15.07,54.79,0l102.02,102.02Z"/>
    <path class="cls-5" d="M415.61,140.72h-101.98c0-9.93,3.77-19.86,11.3-27.4L426.96,11.3c15.07-15.07,39.73-15.07,54.79,0l102.02,102.02c15.07,15.07,15.07,39.73,0,54.79l-102.02,102.02c-7.53,7.53-17.47,11.3-27.4,11.3v-101.98c0-21.31-17.44-38.75-38.75-38.75Z"/>
    <path class="cls-7" d="M179.47,454.36h101.98c0,9.93-3.77,19.86-11.3,27.4l-102.02,102.02c-15.07,15.07-39.73,15.07-54.79,0L11.3,481.76c-15.07-15.07-15.07-39.73,0-54.79l102.02-102.02c7.53-7.53,17.47-11.3,27.4-11.3v101.98c0,21.31,17.44,38.75,38.75,38.75Z"/>
  </g>
  <g>
    <path class="cls-3" d="M270.14,426.96c7.53,7.53,11.3,17.47,11.3,27.4h-101.98c-21.31,0-38.75-17.44-38.75-38.75v-101.98c9.93,0,19.86,3.77,27.4,11.3l102.02,102.02Z"/>
    <path class="cls-8" d="M324.94,426.96l102.02-102.02c7.53-7.53,17.47-11.3,27.4-11.3v101.98c0,21.31-17.44,38.75-38.75,38.75h-101.98c0-9.93,3.77-19.86,11.3-27.4Z"/>
    <path class="cls-2" d="M168.12,270.14c-7.53,7.53-17.47,11.3-27.4,11.3v-101.98c0-21.31,17.44-38.75,38.75-38.75h101.98c0,9.93-3.77,19.86-11.3,27.4l-102.02,102.02Z"/>
    <path class="cls-9" d="M454.36,179.47v101.98c-9.93,0-19.86-3.77-27.4-11.3l-102.02-102.02c-7.53-7.53-11.3-17.47-11.3-27.4h101.98c21.31,0,38.75,17.44,38.75,38.75Z"/>
  </g>
</svg>
