<?xml version="1.0" standalone="no"?>
<!DOCTYPE svg PUBLIC "-//W3C//DTD SVG 20010904//EN"
 "http://www.w3.org/TR/2001/REC-SVG-20010904/DTD/svg10.dtd">
<svg version="1.0" xmlns="http://www.w3.org/2000/svg"
 width="700.000000pt" height="700.000000pt" viewBox="0 0 700.000000 700.000000"
 preserveAspectRatio="xMidYMid meet">
<metadata>
Created by potrace 1.14, written by Peter Selinger 2001-2017
</metadata>
<g transform="translate(0.000000,700.000000) scale(0.100000,-0.100000)"
fill="#000000" stroke="none">
<path d="M1545 6986 c-123 -31 -123 -31 -800 -707 -353 -352 -655 -661 -672
-687 -49 -76 -72 -162 -68 -262 7 -192 -21 -157 728 -907 562 -561 660 -655
712 -681 104 -51 219 -64 326 -36 120 31 130 39 816 727 526 528 654 662 673
702 78 171 64 337 -41 480 -21 28 -320 332 -666 676 -645 643 -661 658 -768
691 -51 16 -187 18 -240 4z"/>
<path d="M5260 6994 c-49 -10 -116 -38 -165 -70 -62 -41 -1303 -1284 -1337
-1339 -62 -100 -83 -242 -53 -354 32 -123 38 -130 728 -818 700 -698 681 -681
816 -713 55 -13 168 -9 226 8 106 32 123 47 778 701 351 350 651 656 667 680
46 68 72 148 76 231 4 87 -7 141 -43 225 -24 55 -83 117 -657 693 -347 348
-653 650 -681 671 -69 53 -153 82 -250 86 -44 2 -91 1 -105 -1z"/>
<path d="M3460 4967 c-28 -7 -172 -146 -716 -690 -375 -375 -689 -694 -698
-709 -24 -37 -23 -100 3 -140 26 -42 1358 -1371 1390 -1388 35 -18 97 -14 134
9 42 27 1370 1358 1387 1391 15 29 15 92 -1 123 -19 36 -1362 1377 -1394 1391
-45 21 -66 23 -105 13z"/>
<path d="M1540 3296 c-123 -35 -122 -35 -807 -719 -688 -689 -686 -687 -719
-811 -30 -112 -2 -265 66 -367 16 -24 316 -330 667 -680 581 -579 644 -639
703 -667 84 -41 137 -51 229 -48 89 4 156 25 226 72 63 42 1304 1285 1337
1339 57 93 82 235 58 336 -31 133 -18 118 -704 807 -353 354 -663 658 -691
676 -27 19 -72 42 -100 51 -64 23 -205 29 -265 11z"/>
<path d="M5229 3295 c-117 -32 -115 -30 -801 -714 -651 -651 -676 -679 -716
-781 -21 -56 -25 -183 -8 -251 34 -131 27 -123 705 -802 350 -351 656 -651
680 -667 82 -55 146 -73 256 -73 110 0 173 18 256 73 24 16 330 316 680 667
680 681 671 671 705 805 16 62 14 168 -5 233 -30 105 -44 121 -714 792 -690
689 -686 686 -812 719 -62 17 -165 16 -226 -1z"/>
</g>
</svg>
